<?xml version="1.0" encoding="UTF-8"?>
<svg xmlns="http://www.w3.org/2000/svg" xmlns:xlink="http://www.w3.org/1999/xlink" width="64pt" height="64pt" viewBox="0 0 64 64" version="1.1">
<g id="surface1">
<path style=" stroke:none;fill-rule:nonzero;fill:#414141;fill-opacity:1;" d="M 32 7.9375 L 30.5625 9.3125 L 22.5625 17.3125 L 25.4375 20.1875 L 30 15.625 L 30 40 L 34 40 L 34 15.625 L 38.5625 20.1875 L 41.4375 17.3125 L 33.4375 9.3125 Z M 18.1875 12.375 C 12.023438 16.71875 8 23.898438 8 32 C 8 45.234375 18.765625 56 32 56 C 45.234375 56 56 45.234375 56 32 C 56 23.898438 51.976563 16.71875 45.8125 12.375 L 43.5 15.625 C 48.640625 19.242188 52 25.21875 52 32 C 52 43.070313 43.070313 52 32 52 C 20.929688 52 12 43.070313 12 32 C 12 25.21875 15.359375 19.25 20.5 15.625 Z "/>
</g>
</svg>
