<?xml version="1.0" encoding="UTF-8"?>
<svg xmlns="http://www.w3.org/2000/svg" xmlns:xlink="http://www.w3.org/1999/xlink" width="52pt" height="52pt" viewBox="0 0 52 52" version="1.1">
<g id="surface1">
<path style=" stroke:none;fill-rule:nonzero;fill:#414141;fill-opacity:1;" d="M 6 0 C 2.695313 0 0 2.695313 0 6 L 0 46 C 0 49.304688 2.695313 52 6 52 L 28 52 C 31.304688 52 34 49.304688 34 46 L 34 6 C 34 2.695313 31.304688 0 28 0 Z M 33.25 0 C 34.929688 1.46875 36 3.601563 36 6 L 36 46 C 36 48.398438 34.929688 50.53125 33.25 52 L 46 48 C 49.0625 46.59375 52 45.3125 52 42 L 52 10 C 52 6.6875 49.15625 5.25 46 4 Z M 6 4 L 28 4 C 29.101563 4 30 4.898438 30 6 L 30 24 C 30 25.101563 29.101563 26 28 26 L 6 26 C 4.898438 26 4 25.101563 4 24 L 4 6 C 4 4.898438 4.898438 4 6 4 Z M 8 6 C 6.898438 6 6 6.898438 6 8 L 6 12 C 6 13.101563 6.898438 14 8 14 L 26 14 C 27.101563 14 28 13.101563 28 12 L 28 8 C 28 6.898438 27.101563 6 26 6 Z M 8 16 C 6.898438 16 6 16.898438 6 18 L 6 22 C 6 23.101563 6.898438 24 8 24 L 26 24 C 27.101563 24 28 23.101563 28 22 L 28 18 C 28 16.898438 27.101563 16 26 16 Z M 17 33.875 C 18.726563 33.875 20.125 35.273438 20.125 37 C 20.125 38.726563 18.726563 40.125 17 40.125 C 15.273438 40.125 13.875 38.726563 13.875 37 C 13.875 35.273438 15.273438 33.875 17 33.875 Z "/>
</g>
</svg>
